<svg width="44" height="58" viewBox="0 0 44 58" fill="none" xmlns="http://www.w3.org/2000/svg">
<path d="M20.2 34.84C18.76 34.84 17.6667 34.8133 16.92 34.76C14.6267 44.7867 13.3467 51.7467 13.08 55.64C10.7867 56.76 7.29333 57.32 2.6 57.32C1.58667 57.32 0.893334 57.2933 0.52 57.24C0.893334 54.0933 2.49333 46.2 5.32 33.56C8.14667 20.8667 9.56 12.8667 9.56 9.56C9.56 8.92 9.18667 8.09333 8.44 7.08C7.74667 6.01333 7.02667 5.13333 6.28 4.44L5.24 3.4L5.48 2.2C14.44 0.866663 21.6933 0.199997 27.24 0.199997C38.2267 0.199997 43.72 4.68 43.72 13.64C43.72 19.6133 41.7467 24.6533 37.8 28.76C33.8533 32.8133 27.9867 34.84 20.2 34.84ZM18.92 29.48C23.0267 29.48 26.12 27.9333 28.2 24.84C30.3333 21.7467 31.4 17.6133 31.4 12.44C31.4 10.3067 31 8.57333 30.2 7.24C29.4 5.85333 28.2267 5.16 26.68 5.16C25.6667 5.16 24.4133 5.34667 22.92 5.72C22.0667 11.32 20.4667 19.24 18.12 29.48H18.92Z" fill="url(#paint0_linear_254_3)"/>
<defs>
<linearGradient id="paint0_linear_254_3" x1="-13.5" y1="-24" x2="65" y2="72" gradientUnits="userSpaceOnUse">
<stop stop-color="#EB06FF"/>
<stop offset="1" stop-color="#2400FF"/>
</linearGradient>
</defs>
</svg>
